<svg width="24px" height="24px" viewBox="0 0 24 24" fill="none" xmlns="http://www.w3.org/2000/svg">
<path fill-rule="evenodd" clip-rule="evenodd" d="M19.1837 4.91224L12 4.74976L4.81627 4.91224C3.48511 4.94235 2.35801 5.90297 2.11732 7.21254C1.5356 10.3776 1.5356 13.6223 2.11732 16.7874C2.35801 18.0969 3.48511 19.0575 4.81627 19.0876L12 19.2501L19.1837 19.0876C20.5149 19.0575 21.642 18.0969 21.8827 16.7874C22.4644 13.6223 22.4644 10.3776 21.8827 7.21254C21.642 5.90297 20.5149 4.94235 19.1837 4.91224ZM4.85019 6.41186L12 6.25014L19.1498 6.41186C19.7701 6.42589 20.2952 6.87349 20.4074 7.48369C20.5607 8.31767 20.6711 9.15752 20.7388 9.99994H3.26121C3.32886 9.15752 3.43933 8.31767 3.59261 7.48369C3.70476 6.87349 4.22993 6.42589 4.85019 6.41186ZM3.18103 11.9999C3.18103 13.5116 3.31822 15.0233 3.59261 16.5162C3.70476 17.1264 4.22993 17.574 4.85019 17.588L12 17.7498L19.1498 17.588C19.7701 17.574 20.2952 17.1264 20.4074 16.5162C20.6818 15.0233 20.819 13.5116 20.819 11.9999H3.18103Z" fill="black"/>
</svg>
