<?xml version="1.0" encoding="iso-8859-1"?>
<!-- Generator: Adobe Illustrator 19.0.0, SVG Export Plug-In . SVG Version: 6.00 Build 0)  -->
<svg version="1.1" id="Layer_1" xmlns="http://www.w3.org/2000/svg" xmlns:xlink="http://www.w3.org/1999/xlink" x="0px" y="0px" viewBox="0 0 512 512" style="enable-background:new 0 0 512 512;" xml:space="preserve">
	<path style="fill:#EC5565;" d="M512,256.006C512,397.402,397.394,512.004,256.004,512C114.606,512.004,0,397.402,0,256.006
	C-0.007,114.61,114.606,0,256.004,0C397.394,0,512,114.614,512,256.006z" />
	<path style="fill:#D94453;" d="M511.679,268.685l-0.745-0.755c-0.036-0.036-0.08-0.06-0.116-0.096L340.545,97.541
	c-0.033-0.034-0.076-0.058-0.109-0.091l-1.484-1.503c-5.402-5.483-12.896-8.627-20.563-8.627H151.495
	c-16.005,0-29.033,13.158-29.033,29.328v278.703c0,8.513,3.67,16.125,9.426,21.487c0.512,0.557,91.809,91.847,92.362,92.362
	c0.284,0.307,0.588,0.59,0.882,0.883c10.128,1.216,20.415,1.917,30.871,1.917C393.142,512.004,505.07,404.188,511.679,268.685z" />
	<g>
		<path style="fill:#F6F6F6;" d="M305.507,220.859h-110.01c-9.582,0-16.809,7.921-16.809,18.421v122.631
		c0,9.904,6.425,20.597,16.809,20.597h110.01c10.096,0,20.777-10.591,20.777-20.597V239.28
		C326.283,228.902,315.116,220.859,305.507,220.859z M312.226,361.911c0,2.203-4.461,6.541-6.719,6.541h-14.366v-42.17
		c0-3.885-3.143-7.028-7.028-7.028s-7.028,3.143-7.028,7.028v42.17H256v-42.17c0-3.885-3.143-7.028-7.028-7.028
		s-7.028,3.143-7.028,7.028v42.17h-14.057v-42.17c0-3.885-3.143-7.028-7.028-7.028s-7.028,3.143-7.028,7.028v42.17h-18.333
		c-0.645,0-2.752-2.786-2.752-6.541V239.28c0-0.178,0.034-4.365,2.752-4.365h18.333v35.141c0,3.885,3.143,7.028,7.028,7.028
		s7.028-3.143,7.028-7.028v-35.141h14.057v35.141c0,3.885,3.143,7.028,7.028,7.028s7.028-3.143,7.028-7.028v-35.141h21.085v35.141
		c0,3.885,3.143,7.028,7.028,7.028s7.028-3.143,7.028-7.028v-35.141h14.366c3.027,0,6.719,2.924,6.719,4.365L312.226,361.911
		L312.226,361.911z" />
		<path style="fill:#F6F6F6;" d="M381.068,138.626l-42.115-42.677c-5.402-5.484-12.897-8.627-20.563-8.627H151.495
		c-16.005,0-29.033,13.157-29.033,29.328v278.702c0,16.171,13.027,29.328,29.033,29.328h209.009
		c16.005,0,29.033-13.157,29.033-29.328V159.327C389.537,151.509,386.531,144.158,381.068,138.626z M375.481,395.35
		c0,8.421-6.719,15.271-14.976,15.271H151.495c-8.257,0-14.976-6.85-14.976-15.271V116.65c0-8.421,6.719-15.271,14.976-15.271
		h166.894c3.987,0,7.735,1.579,10.556,4.441l42.115,42.677c2.807,2.848,4.42,6.795,4.42,10.831V395.35z" />
	</g>
</svg>