<?xml version="1.0" encoding="UTF-8" standalone="no"?>
<!DOCTYPE svg PUBLIC "-//W3C//DTD SVG 1.1//EN" "http://www.w3.org/Graphics/SVG/1.1/DTD/svg11.dtd">
<svg xmlns="http://www.w3.org/2000/svg" xmlns:xlink="http://www.w3.org/1999/xlink" version="1.1" width="237pt" height="176pt" viewBox="0 0 237 176">
<g enable-background="new">
<g id="Layer-1" data-name="Layer">
<clipPath id="cp0">
<path transform="matrix(1,0,0,-1,-302,386)" d="M 0 595.276 L 841.89 595.276 L 841.89 0 L 0 0 Z "/>
</clipPath>
<g clip-path="url(#cp0)">
<path transform="matrix(1,0,0,-1,214.03913,.9577942)" d="M 0 0 L -190.188 0 C -202.714 0 -212.904 -9.809 -212.904 -21.866 L -212.904 -152.942 C -212.904 -165 -202.714 -174.809 -190.188 -174.809 L 0 -174.809 C 12.525 -174.809 22.716 -165 22.716 -152.942 L 22.716 -21.866 C 22.716 -9.809 12.525 0 0 0 " fill="#ffffff"/>
<path transform="matrix(1,0,0,-1,143.48142,116.252689)" d="M 0 0 L -18.129 0 L -18.129 55.557 L .662 55.557 C .662 55.557 27.118 57.536 27.118 28.504 C 27.118 -.527 0 0 0 0 M 9.105 89.339 L -23.18 89.339 L -43.872 89.339 L -52.014 89.339 C -54.792 89.339 -57.064 87.067 -57.064 84.29 L -57.064 -28.436 C -57.064 -31.214 -54.792 -33.486 -52.014 -33.486 L -44.748 -33.486 L -23.18 -33.486 L 5.593 -33.486 C 62.865 -33.486 67.436 11.48 67.436 23.885 L 67.436 33.386 C 65.457 82.61 25.337 89.339 9.105 89.339 " fill="#003168"/>
<path transform="matrix(1,0,0,-1,72.288608,55.528596)" d="M 0 0 L 0 23.565 C 0 26.343 -2.272 28.615 -5.05 28.615 L -33.885 28.615 C -36.663 28.615 -38.935 26.343 -38.935 23.565 L -38.935 -15.574 Z " fill="#f04e23"/>
<path transform="matrix(1,0,0,-1,33.353487,85.35669)" d="M 0 0 L 0 -59.332 C 0 -62.11 2.272 -64.382 5.05 -64.382 L 33.885 -64.382 C 36.663 -64.382 38.935 -62.11 38.935 -59.332 L 38.935 15.574 Z " fill="#003168"/>
<path transform="matrix(1,0,0,-1,214.03913,.9577942)" d="M 0 0 L -190.188 0 C -202.714 0 -212.904 -9.809 -212.904 -21.866 L -212.904 -152.942 C -212.904 -165 -202.714 -174.809 -190.188 -174.809 L 0 -174.809 C 12.525 -174.809 22.716 -165 22.716 -152.942 L 22.716 -21.866 C 22.716 -9.809 12.525 0 0 0 M 0 -6.5 C 8.941 -6.5 16.215 -13.394 16.215 -21.866 L 16.215 -152.942 C 16.215 -161.415 8.941 -168.309 0 -168.309 L -190.188 -168.309 C -199.129 -168.309 -206.403 -161.415 -206.403 -152.942 L -206.403 -21.866 C -206.403 -13.394 -199.129 -6.5 -190.188 -6.5 L 0 -6.5 " fill="#003168"/>
</g>
</g>
</g>
</svg>
